<svg width="512" height="512" viewBox="0 0 512 512" fill="none" xmlns="http://www.w3.org/2000/svg">
<path d="M85.3332 128H42.6665V426.667C42.6665 450.133 61.8665 469.333 85.3332 469.333H384V426.667H85.3332V128Z" fill="#0082C6"/>
<path d="M426.667 42.6666H170.667C147.2 42.6666 128 61.8666 128 85.3333V341.333C128 364.8 147.2 384 170.667 384H426.667C450.133 384 469.333 364.8 469.333 341.333V85.3333C469.333 61.8666 450.133 42.6666 426.667 42.6666ZM298.88 320C286.293 320 276.48 309.973 276.48 297.6C276.48 285.013 286.507 275.413 298.88 275.413C311.467 275.413 321.067 285.013 321.067 297.6C320.853 309.973 311.467 320 298.88 320ZM352.213 188.373C338.773 208.213 325.973 214.187 318.933 226.987C316.16 232.107 315.093 235.52 315.093 252.16H282.667C282.667 243.413 281.387 229.12 288.213 216.96C296.96 201.387 313.387 192.213 322.987 178.56C333.227 164.053 327.467 137.173 298.667 137.173C279.893 137.173 270.507 151.467 266.667 163.413L237.44 151.253C245.547 127.147 267.093 106.667 298.453 106.667C324.693 106.667 342.827 118.613 352 133.547C359.893 146.56 364.373 170.453 352.213 188.373Z" fill="#3DAFEB"/>
</svg>
